<?xml version="1.0" encoding="UTF-8" standalone="no"?>
<svg
   width="171.24666"
   height="134.3987"
   viewBox="0 0 171.24666 134.3987"
   version="1.1"
   xml:space="preserve"
   style="clip-rule:evenodd;fill-rule:evenodd;stroke-linecap:round;stroke-linejoin:round"
   id="svg6"
   sodipodi:docname="te.svg"
   inkscape:version="1.3.2 (091e20e, 2023-11-25)"
   xmlns:inkscape="http://www.inkscape.org/namespaces/inkscape"
   xmlns:sodipodi="http://sodipodi.sourceforge.net/DTD/sodipodi-0.dtd"
   xmlns="http://www.w3.org/2000/svg"
   xmlns:svg="http://www.w3.org/2000/svg"><sodipodi:namedview
   id="namedview6"
   pagecolor="#ffffff"
   bordercolor="#000000"
   borderopacity="0.25"
   inkscape:showpageshadow="2"
   inkscape:pageopacity="0.0"
   inkscape:pagecheckerboard="0"
   inkscape:deskcolor="#d1d1d1"
   inkscape:zoom="1.0016026"
   inkscape:cx="312"
   inkscape:cy="57.9072"
   inkscape:window-width="1560"
   inkscape:window-height="925"
   inkscape:window-x="0"
   inkscape:window-y="39"
   inkscape:window-maximized="0"
   inkscape:current-layer="svg6" />
    <g
   transform="matrix(3.779491,0,0,3.779491,-111.91073,-256.96382)"
   id="g1">
        <path
   d="M 40.075,103.549 V 75.659 H 29.61 v -7.67 h 29.972 v 7.67 h -10.82 v 27.89 z"
   style="fill:url(#_Linear1);fill-rule:nonzero"
   id="path1" />
    </g>
    <g
   transform="matrix(3.286997,-1.865529,1.865529,3.286997,-111.91397,-256.96666)"
   id="g3">
        <path
   d="m 8.65,119.493 c -2.98,0 -5.588,-0.593 -7.823,-1.778 -2.201,-1.185 -3.912,-2.811 -5.131,-4.877 -1.185,-2.1 -1.778,-4.488 -1.778,-7.163 0,-2.1 0.339,-4.013 1.016,-5.74 0.677,-1.761 1.626,-3.268 2.845,-4.521 1.253,-1.253 2.709,-2.219 4.368,-2.896 1.693,-0.711 3.539,-1.067 5.538,-1.067 1.896,0 3.623,0.339 5.181,1.016 1.558,0.677 2.913,1.626 4.064,2.845 1.151,1.219 2.032,2.659 2.642,4.318 0.609,1.66 0.897,3.472 0.863,5.436 l -0.05,2.235 H -1.053 l -1.22,-4.623 H 13.73 l -0.864,0.915 v -1.016 c -0.067,-0.847 -0.338,-1.575 -0.813,-2.185 -0.44,-0.643 -1.033,-1.151 -1.778,-1.524 -0.711,-0.373 -1.523,-0.559 -2.438,-0.559 -1.355,0 -2.506,0.271 -3.454,0.813 -0.915,0.508 -1.609,1.253 -2.083,2.235 -0.474,0.983 -0.711,2.202 -0.711,3.658 0,1.456 0.305,2.743 0.914,3.86 0.643,1.118 1.558,1.982 2.743,2.592 1.219,0.609 2.659,0.914 4.318,0.914 1.118,0 2.134,-0.169 3.048,-0.508 0.915,-0.339 1.897,-0.914 2.947,-1.727 l 3.81,5.385 c -1.05,0.88 -2.168,1.625 -3.353,2.235 -1.185,0.575 -2.405,0.999 -3.658,1.27 -1.219,0.305 -2.455,0.457 -3.708,0.457 z"
   style="fill:none;fill-rule:nonzero;stroke:#ffffff;stroke-width:2.1px;stroke-opacity:0.5"
   id="path2" />
        <path
   d="m 8.65,119.493 c -2.98,0 -5.588,-0.593 -7.823,-1.778 -2.201,-1.185 -3.912,-2.811 -5.131,-4.877 -1.185,-2.1 -1.778,-4.488 -1.778,-7.163 0,-2.1 0.339,-4.013 1.016,-5.74 0.677,-1.761 1.626,-3.268 2.845,-4.521 1.253,-1.253 2.709,-2.219 4.368,-2.896 1.693,-0.711 3.539,-1.067 5.538,-1.067 1.896,0 3.623,0.339 5.181,1.016 1.558,0.677 2.913,1.626 4.064,2.845 1.151,1.219 2.032,2.659 2.642,4.318 0.609,1.66 0.897,3.472 0.863,5.436 l -0.05,2.235 H -1.053 l -1.22,-4.623 H 13.73 l -0.864,0.915 v -1.016 c -0.067,-0.847 -0.338,-1.575 -0.813,-2.185 -0.44,-0.643 -1.033,-1.151 -1.778,-1.524 -0.711,-0.373 -1.523,-0.559 -2.438,-0.559 -1.355,0 -2.506,0.271 -3.454,0.813 -0.915,0.508 -1.609,1.253 -2.083,2.235 -0.474,0.983 -0.711,2.202 -0.711,3.658 0,1.456 0.305,2.743 0.914,3.86 0.643,1.118 1.558,1.982 2.743,2.592 1.219,0.609 2.659,0.914 4.318,0.914 1.118,0 2.134,-0.169 3.048,-0.508 0.915,-0.339 1.897,-0.914 2.947,-1.727 l 3.81,5.385 c -1.05,0.88 -2.168,1.625 -3.353,2.235 -1.185,0.575 -2.405,0.999 -3.658,1.27 -1.219,0.305 -2.455,0.457 -3.708,0.457 z"
   style="fill:url(#_Linear2);fill-rule:nonzero"
   id="path3" />
    </g>
    <defs
   id="defs6">
        <linearGradient
   id="_Linear1"
   x1="0"
   y1="0"
   x2="1"
   y2="0"
   gradientUnits="userSpaceOnUse"
   gradientTransform="matrix(0,-36.802,36.802,0,147.899,104.421)"><stop
     offset="0"
     style="stop-color:rgb(138,138,138);stop-opacity:1"
     id="stop3" /><stop
     offset="1"
     style="stop-color:white;stop-opacity:1"
     id="stop4" /></linearGradient>
        <linearGradient
   id="_Linear2"
   x1="0"
   y1="0"
   x2="1"
   y2="0"
   gradientUnits="userSpaceOnUse"
   gradientTransform="matrix(0,27.543,-27.543,0,6.299,91.868)"><stop
     offset="0"
     style="stop-color:rgb(138,138,138);stop-opacity:1"
     id="stop5" /><stop
     offset="1"
     style="stop-color:black;stop-opacity:1"
     id="stop6" /></linearGradient>
    </defs>
</svg>
